HIERARCHY
ROOT root
{
	OFFSET 0.000000 0.000000 0.000000
	CHANNELS 6 Xposition Yposition Zposition Zrotation Yrotation Xrotation
	JOINT lhip
	{
		OFFSET 0.058581 -0.082280 -0.017664
		CHANNELS 3 Zrotation Yrotation Xrotation
		JOINT lknee
		{
			OFFSET 0.043451 -0.386469 0.008037
			CHANNELS 3 Zrotation Yrotation Xrotation
			JOINT lankle
			{
				OFFSET -0.014790 -0.426874 -0.037428
				CHANNELS 3 Zrotation Yrotation Xrotation
				JOINT ltoe
				{
					OFFSET 0.041054 -0.060286 0.122042
					CHANNELS 3 Zrotation Yrotation Xrotation
					End Site
					{
						OFFSET 0.000000 0.000000 0.000000
					}
				}
			}
		}
	}
	JOINT rhip
	{
		OFFSET -0.060310 -0.090513 -0.013543
		CHANNELS 3 Zrotation Yrotation Xrotation
		JOINT rknee
		{
			OFFSET -0.043257 -0.383688 -0.004843
			CHANNELS 3 Zrotation Yrotation Xrotation
			JOINT rankle
			{
				OFFSET 0.019056 -0.420046 -0.034562
				CHANNELS 3 Zrotation Yrotation Xrotation
				JOINT rtoe
				{
					OFFSET -0.034840 -0.062106 0.130323
					CHANNELS 3 Zrotation Yrotation Xrotation
					End Site
					{
						OFFSET 0.000000 0.000000 0.000000
					}
				}
			}
		}
	}
	JOINT lowerback
	{
		OFFSET 0.004439 0.124404 -0.038385
		CHANNELS 3 Zrotation Yrotation Xrotation
		JOINT upperback
		{
			OFFSET 0.004488 0.137956 0.026820
			CHANNELS 3 Zrotation Yrotation Xrotation
			JOINT chest
			{
				OFFSET -0.002265 0.056032 0.002855
				CHANNELS 3 Zrotation Yrotation Xrotation
				JOINT lowerneck
				{
					OFFSET -0.013390 0.211636 -0.033468
					CHANNELS 3 Zrotation Yrotation Xrotation
					JOINT upperneck
					{
						OFFSET 0.010113 0.088937 0.050410
						CHANNELS 3 Zrotation Yrotation Xrotation
						End Site
						{
							OFFSET 0.000000 0.000000 0.000000
						}
					}
				}
				JOINT lclavicle
				{
					OFFSET 0.071702 0.114000 -0.018898
					CHANNELS 3 Zrotation Yrotation Xrotation
					JOINT lshoulder
					{
						OFFSET 0.122921 0.045205 -0.019046
						CHANNELS 3 Zrotation Yrotation Xrotation
						JOINT lelbow
						{
							OFFSET 0.255332 -0.015649 -0.022946
							CHANNELS 3 Zrotation Yrotation Xrotation
							JOINT lwrist
							{
								OFFSET 0.265709 0.012698 -0.007375
								CHANNELS 3 Zrotation Yrotation Xrotation
								End Site
								{
									OFFSET 0.000000 0.000000 0.000000
								}
							}
						}
					}
				}
				JOINT rclavicle
				{
					OFFSET -0.082954 0.112472 -0.023707
					CHANNELS 3 Zrotation Yrotation Xrotation
					JOINT rshoulder
					{
						OFFSET -0.113228 0.046853 -0.008472
						CHANNELS 3 Zrotation Yrotation Xrotation
						JOINT relbow
						{
							OFFSET -0.260127 -0.014369 -0.031269
							CHANNELS 3 Zrotation Yrotation Xrotation
							JOINT rwrist
							{
								OFFSET -0.269108 0.006794 -0.006027
								CHANNELS 3 Zrotation Yrotation Xrotation
								End Site
								{
									OFFSET 0.000000 0.000000 0.000000
								}
							}
						}
					}
				}
			}
		}
	}
}
MOTION
Frames: 10
Frame Time: 0.033333
-0.005006 0.201697 1.012387 90.150321 -1.731453 89.251647 5.226952 0.699197 -2.899268 -2.348345 -2.090114 7.634024 -2.882097 9.763386 -1.567685 0.000000 -0.000000 0.000000 -0.264789 -4.187610 -2.394510 1.172389 -2.216271 6.815765 2.953760 -5.635303 -4.789180 0.000000 -0.000000 0.000000 0.967633 -0.065066 13.307379 -0.203786 -3.311509 0.283348 -0.183141 0.389399 0.468797 -2.291081 -7.176841 -7.664241 3.771522 -9.104651 7.338875 -19.184379 -3.880960 5.416795 -59.999615 -4.579726 15.945074 -3.491101 -40.788399 24.184672 4.301787 -7.856540 -25.258227 17.749914 7.094815 4.608186 60.247794 4.492520 14.841255 -9.842978 35.497683 11.823638 7.616975 0.174324 0.322256 
-0.002879 0.201328 1.011654 90.324333 -1.578270 89.017761 5.306668 0.950945 -1.799984 -2.204545 -2.143171 6.309851 -2.281362 9.704413 -2.024088 0.000000 -0.000000 0.000000 -0.164250 -4.088383 -1.845348 1.288294 -2.305934 6.621132 3.172938 -5.858353 -4.890171 0.000000 -0.000000 0.000000 0.881438 -0.153821 12.832653 0.057785 -3.206887 0.534391 -0.052515 0.440525 0.316901 -2.109263 -7.274246 -7.477527 3.534961 -8.916106 7.435373 -19.271276 -3.432468 5.451687 -60.251759 -4.314184 15.921055 -3.250330 -40.979393 24.046788 3.550182 -8.039606 -25.684065 17.702897 6.892812 4.496877 60.471740 4.688069 15.110214 -10.598349 35.941602 11.138441 7.511563 0.251217 0.353244 
-0.001273 0.201177 1.011196 90.644531 -1.495808 88.837179 5.486520 1.256698 -1.005575 -2.239334 -2.651058 5.392585 -2.228441 9.274537 -2.046140 0.000000 -0.000000 0.000000 -0.139801 -4.087906 -1.526781 1.364246 -2.484838 6.663496 3.192015 -5.995114 -5.014800 0.000000 -0.000000 0.000000 0.742838 -0.222199 12.328976 0.219364 -3.180170 0.753868 0.086564 0.398531 0.231763 -1.896953 -7.158141 -7.424491 3.362392 -9.003726 7.752497 -19.221792 -3.186399 5.504480 -60.514947 -4.386299 15.790889 -3.132248 -40.572134 24.046472 2.967724 -8.008781 -25.714861 17.759257 6.740555 4.350604 60.648512 4.875868 15.174661 -11.096602 36.472414 10.704374 7.497696 0.397084 0.165917 
0.000601 0.201324 1.011261 91.148473 -1.603432 88.621969 5.620096 1.399920 -0.539111 -2.557636 -2.873786 4.959072 -2.615643 8.920645 -2.000324 0.000000 -0.000000 0.000000 -0.320819 -4.159986 -1.135145 1.347700 -2.862777 6.683187 3.259236 -6.023832 -5.159151 0.000000 -0.000000 0.000000 0.354254 -0.273562 11.864588 0.364497 -3.309822 0.669519 0.154347 0.339337 0.319407 -1.509038 -6.790457 -7.390897 3.067178 -9.223253 8.006794 -19.042361 -2.708144 5.338240 -60.596589 -4.347220 15.821062 -2.998658 -40.495137 24.949380 1.609983 -8.185118 -25.715617 17.969751 6.415710 4.312402 60.996789 5.391582 15.340524 -11.558392 36.716216 10.539512 7.499525 0.661058 -0.767381 
0.001709 0.201877 1.011483 91.254583 -1.716516 88.486352 5.529996 1.570248 -0.169082 -2.652029 -2.971250 4.636339 -2.630832 8.790816 -1.971180 0.000000 -0.000000 0.000000 -0.522959 -4.219476 -0.955298 1.377810 -2.898181 6.806610 3.307139 -6.012196 -5.317944 0.000000 -0.000000 0.000000 0.235367 -0.216538 11.632333 0.337385 -3.272473 0.625578 0.104418 0.341003 0.290771 -1.429383 -6.627621 -7.351016 2.876973 -9.338939 8.095168 -18.867189 -2.525615 5.306051 -60.503210 -4.189387 15.818037 -3.079032 -40.924017 25.568643 1.407453 -8.067143 -25.356871 17.902882 6.277016 4.177467 61.461897 5.353727 15.463424 -11.878458 36.966225 10.302161 7.045113 0.735911 -0.993975 
0.003154 0.202761 1.011654 91.508349 -1.741816 88.252384 5.436620 1.804585 0.284543 -2.614046 -3.223079 4.279455 -2.648787 8.688855 -1.948327 0.000000 -0.000000 0.000000 -0.597335 -4.259322 -0.538867 1.300737 -3.014047 6.730879 3.343119 -6.123132 -5.346581 0.000000 -0.000000 0.000000 0.264378 -0.225791 11.228366 0.272386 -3.184812 0.769168 -0.023829 0.341925 0.263014 -1.489506 -6.544414 -7.208258 2.709823 -9.426894 7.969219 -18.663959 -2.245361 5.302538 -60.105911 -4.100931 15.851057 -3.618977 -42.163620 26.867212 1.418771 -8.226766 -25.186760 17.775022 6.189217 4.133233 61.927079 5.290822 15.594993 -11.996672 37.577463 10.336666 6.794982 0.751106 -1.492594 
0.004872 0.204195 1.011516 91.535042 -1.730742 88.031141 5.339955 1.851162 0.810698 -2.559238 -3.313774 3.909615 -2.612070 8.688227 -1.953974 0.000000 -0.000000 0.000000 -0.699972 -4.325326 -0.217282 1.246901 -3.008857 6.804672 3.381589 -6.118065 -5.436198 0.000000 -0.000000 0.000000 0.386271 -0.228910 10.875173 0.170334 -3.017144 0.794947 -0.169957 0.551564 0.295431 -1.539236 -6.471314 -7.180971 2.499076 -9.591919 7.858638 -18.422484 -1.778288 5.098608 -59.779241 -4.064421 15.821756 -4.430017 -43.368950 27.895770 0.923650 -8.389885 -25.205438 17.563833 5.974907 4.095690 62.176497 5.078887 15.834140 -11.743008 38.452898 10.841730 7.053342 0.941018 -1.648848 
0.006798 0.205673 1.011382 91.338900 -1.745154 87.773533 5.249722 1.705654 1.373879 -2.577870 -3.207829 3.672960 -2.530689 8.854313 -2.004036 0.000000 -0.000000 0.000000 -0.815678 -4.301355 0.096941 1.193340 -2.853841 6.992589 3.425313 -6.194770 -5.611986 0.000000 -0.000000 0.000000 0.375173 -0.081865 10.545213 0.130617 -2.739785 0.904405 -0.215472 0.694304 0.288073 -1.667092 -6.387222 -7.159631 2.366635 -9.549751 7.738204 -18.339221 -1.349181 4.924296 -59.404542 -3.926419 15.852423 -5.303714 -44.496183 28.723051 0.263929 -8.358487 -25.752273 17.527433 5.839263 4.026669 62.025905 4.798551 16.098905 -11.267518 39.225950 11.351479 7.467198 1.045054 -1.619095 
0.008651 0.207348 1.011407 91.131732 -1.737892 87.471722 5.201172 1.630791 1.938807 -2.664379 -3.140158 3.524225 -2.502299 9.083220 -2.179855 0.000000 -0.000000 0.000000 -0.918724 -4.217122 0.466607 1.134598 -2.766162 7.113738 3.493359 -6.219607 -5.767274 0.000000 -0.000000 0.000000 0.391254 0.000918 10.281818 0.058645 -2.484688 0.952047 -0.226844 0.874843 0.328709 -1.818369 -6.484389 -7.138144 2.246474 -9.435365 7.762045 -18.229600 -0.908990 4.727968 -59.431072 -3.785587 15.978055 -5.581411 -45.076486 28.380643 0.901323 -8.407721 -26.700400 17.544689 5.735442 3.995580 61.643272 4.686856 16.446509 -10.284433 39.606857 12.213311 7.355782 1.079085 -1.539958 
0.010653 0.209637 1.011158 91.001022 -1.770782 87.196592 5.062781 1.700093 2.413157 -2.758265 -3.292478 3.431365 -2.424294 9.249117 -2.315625 0.000000 -0.000000 0.000000 -1.122861 -4.210538 0.751420 1.095413 -2.619807 7.321229 3.503017 -6.275094 -5.923634 0.000000 -0.000000 0.000000 0.377153 0.010350 9.838978 -0.007199 -2.332993 1.077364 -0.272139 0.990484 0.365463 -1.917455 -6.344142 -7.000879 2.179688 -9.128113 7.620441 -18.287433 -0.553543 4.623600 -59.196121 -3.374936 16.023742 -5.919192 -46.057047 28.244997 0.988211 -8.187951 -26.830950 17.693909 5.751641 3.953449 61.257039 4.679916 16.749892 -9.450484 39.700109 12.969679 7.834686 0.916381 -0.863166 
